<svg viewBox="-981 -425 1038 340" width="1038" height="340" version="1.1" baseProfile="full" xmlns="http://www.w3.org/2000/svg" class="js-draw--autoresize"><style id="js-draw-style-sheet">path{stroke-linecap:round;stroke-linejoin:round;}text{white-space:pre;}</style><path d="M57,-85l0-340l-1038,0l0,340l1038,0" fill="#ffffff" class="js-draw-image-background"></path><path d="M-747,-351q51,17 85,27q45,13 67,43q14,20 1,64q-5,17 -44,50q-25,21 -66,16q-26-3 18-106q41-47 82-80q16-13 95-41q88-31 230-22q47,3 86,45q13,14 -3,46q-39,78 -93,124q-15,13 -52,13q-10,0 -19-1" fill="none" stroke="#803380" stroke-width="4"></path><path d="M-516,-366q25,76 44,108q9,20 16,36q4,9 -1,9q-16,0 -11-5q9-9 99-37q38-12 133-12q1,0 4,4q0,0 -33,16q-29,14 -194,23q-71,10 -129,21q-75,14 -114,14q-1,0 -4-4" fill="none" stroke="#803380" stroke-width="4"></path><path d="M-874,-390q-1,15 -3,36q-2,23 -39,105q-8,17 -45,82q-18,31 -18,69q0,1 3-3q8-10 49-27q75-24 137-42q62-18 318-58q216-34 455-30q43,1 61,3q11,1 -16,25q-39,35 -182,77q-25,7 -130,50q-32,13 -84,13q-9,1 -17,3q0,0 -1-2" fill="none" stroke="#803380" stroke-width="4"></path><path d="M-538,-392q42,46 63,78q32,47 58,86q6,9 15,18q2,2 27-52q28-77 49-141q6-20 16-20q4,0 -32,30q-85,70 -358,201q-46,19 -85,33q-9,3 -45-8q-13-4 -29-149q-2-24 -4-43q0-2 9-4" fill="none" stroke="#803380" stroke-width="4"></path></svg>